<svg fill="#000000" xmlns="http://www.w3.org/2000/svg" x="0px" y="0px"
	 viewBox="0 0 24 24" enable-background="new 0 0 24 24" xml:space="preserve">
<path d="M1,1v2v1c0,0.6,0.4,1,1,1s1-0.4,1-1V3h18v10c0,0.6,0.4,1,1,1s1-0.4,1-1V3V1H1z"/>
<circle cx="18" cy="6" r="1"/>
<circle cx="18" cy="10" r="1"/>
<path d="M12,17H6c-0.6,0-1,0.4-1,1c0,0.6,0.4,1,1,1h6c0.6,0,1-0.4,1-1C13,17.4,12.6,17,12,17z"/>
<path d="M14,13H6c-0.6,0-1,0.4-1,1c0,0.6,0.4,1,1,1h8c0.6,0,1-0.4,1-1C15,13.4,14.6,13,14,13z"/>
<path d="M14,9H6c-0.6,0-1,0.4-1,1c0,0.6,0.4,1,1,1h8c0.6,0,1-0.4,1-1C15,9.4,14.6,9,14,9z"/>
<path d="M14,5H6C5.4,5,5,5.4,5,6c0,0.6,0.4,1,1,1h8c0.6,0,1-0.4,1-1C15,5.4,14.6,5,14,5z"/>
<path d="M13,21H3V9c0-0.6-0.4-1-1-1S1,8.4,1,9v14h2h10V21z"/>
<path d="M22,20c0.6,0,1-0.5,1-1c0-0.6-0.4-1-1-1c-0.1,0-0.1,0-0.2,0c0-0.1-0.1-0.2-0.1-0.3c0,0,0.1-0.1,0.1-0.1c0.4-0.4,0.4-1,0-1.4
	c-0.4-0.4-1-0.4-1.4,0c0,0-0.1,0.1-0.1,0.1c-0.1-0.1-0.2-0.1-0.3-0.1c0-0.1,0-0.1,0-0.2c0-0.6-0.4-1-1-1s-1,0.4-1,1
	c0,0.1,0,0.1,0,0.2c-0.1,0-0.2,0.1-0.4,0.1c0,0-0.1-0.1-0.1-0.1c-0.4-0.4-1-0.4-1.4,0c-0.4,0.4-0.4,1,0,1.4c0,0,0.1,0.1,0.1,0.1
	c-0.1,0.1-0.1,0.2-0.1,0.4c-0.1,0-0.1,0-0.2,0c-0.6,0-1,0.4-1,1c0,0.6,0.4,1,1,1c0.1,0,0.1,0,0.2,0c0,0.1,0.1,0.2,0.1,0.4
	c0,0-0.1,0.1-0.1,0.1c-0.4,0.4-0.4,1,0,1.4c0.4,0.4,1,0.4,1.4,0c0,0,0.1-0.1,0.1-0.1c0.1,0.1,0.2,0.1,0.4,0.1c0,0.1,0,0.1,0,0.2
	c0,0.6,0.5,1,1,1s1-0.4,1-1c0-0.1,0-0.1,0-0.2c0.1,0,0.2-0.1,0.3-0.1c0,0,0.1,0.1,0.1,0.1c0.4,0.4,1,0.4,1.4,0c0.4-0.4,0.4-1,0-1.4
	c0,0-0.1-0.1-0.2-0.1c0-0.1,0.1-0.2,0.1-0.3C21.9,20,21.9,20,22,20z M19,21c-1.1,0-2-0.9-2-2c0-1.1,0.9-2,2-2s2,0.9,2,2
	C21,20.1,20.1,21,19,21z"/>
</svg>
