<svg fill="#000000" xmlns="http://www.w3.org/2000/svg" viewBox="0 0 24 24"><title>allocation-rules-sets</title><path d="M1,1V5A1,1,0,0,0,3,5V3H19V5a1,1,0,0,0,2,0V1Z"/><path d="M20.8,7.11,12.32,15.6,10.2,13.47a1,1,0,1,0-1.41,1.41l2.83,2.83a1,1,0,0,0,1.41,0l9.19-9.19A1,1,0,1,0,20.8,7.11Z"/><path d="M3,21V9A1,1,0,0,0,1,9V23H13V21Z"/><path d="M22,20a1,1,0,0,0,0-2,1,1,0,0,0-.18,0,3,3,0,0,0-.14-.34.94.94,0,0,0,.15-.1,1,1,0,0,0-1.42-1.42.94.94,0,0,0-.1.15L20,16.17A1,1,0,0,0,20,16a1,1,0,0,0-2,0,1,1,0,0,0,0,.17l-.35.14a1,1,0,0,0-.1-.15,1,1,0,0,0-1.41,1.41,1,1,0,0,0,.15.1,2.94,2.94,0,0,0-.14.35A1,1,0,0,0,16,18a1,1,0,0,0,0,2,1,1,0,0,0,.17,0,3,3,0,0,0,.14.35,1,1,0,0,0-.15.1,1,1,0,0,0,1.41,1.41,1,1,0,0,0,.1-.15l.35.14A.93.93,0,0,0,18,22a1,1,0,0,0,2,0,.93.93,0,0,0,0-.18l.32-.13a.93.93,0,0,0,.1.15,1,1,0,0,0,1.44-1.44.93.93,0,0,0-.16-.1,3,3,0,0,0,.13-.32A.94.94,0,0,0,22,20Zm-3,1a2,2,0,1,1,2-2A2,2,0,0,1,19,21Z"/><path d="M8,4a4,4,0,1,0,4,4A4,4,0,0,0,8,4Zm0,6a2,2,0,1,1,2-2A2,2,0,0,1,8,10Z"/></svg>