<svg fill="#000000" xmlns="http://www.w3.org/2000/svg" viewBox="0 0 24 24"><title>catalogues</title><path d="M23,7A6,6,0,0,0,12,3.67,6,6,0,0,0,1,7V7H1V22a1,1,0,0,0,2,0,4,4,0,0,1,8,0,1,1,0,0,0,2,0,4,4,0,0,1,8,0,1,1,0,0,0,2,0,6,6,0,0,0-11-3.31,6,6,0,0,0-9-1.15V7H3a4,4,0,0,1,8,0V7h0v8a1,1,0,0,0,2,0V7h0a4,4,0,0,1,8,0V7h0v9a1,1,0,0,0,2,0V7h0Z"/><path d="M7,19a3,3,0,0,0-3,3,1,1,0,0,0,2,0,1,1,0,0,1,2,0,1,1,0,0,0,2,0A3,3,0,0,0,7,19Z"/><path d="M17,19a3,3,0,0,0-3,3,1,1,0,0,0,2,0,1,1,0,0,1,2,0,1,1,0,0,0,2,0A3,3,0,0,0,17,19Z"/><rect x="19" y="3" width="1" height="12"/></svg>