<svg fill="#ffffff" xmlns="http://www.w3.org/2000/svg" x="0px" y="0px"
	 viewBox="0 0 24 24" enable-background="new 0 0 24 24" xml:space="preserve">
<path d="M9.2,9.2c-0.4,0.4-0.4,1,0,1.4c0.4,0.4,1,0.4,1.4,0c0.8-0.8,2-0.8,2.8,0c0.8,0.8,0.8,2,0,2.8c-0.8,0.8-2,0.8-2.8,0
	c-0.4-0.4-1-0.4-1.4,0s-0.4,1,0,1.4c1.6,1.6,4.1,1.6,5.7,0s1.6-4.1,0-5.7C13.3,7.6,10.7,7.6,9.2,9.2z"/>
<circle display="none" opacity="0.1" cx="12" cy="12" r="10"/>
<g>
	<path d="M14,21.1C14,21.1,14,21.1,14,21.1c-1-0.5-0.9-1.3-0.9-2.1c0,0,0-0.1,0-0.1c0,0-0.1,0-0.1,0V20c0,0.6-0.4,1-1,1s-1-0.4-1-1
		v-1.1c-1.2-0.2-2.3-0.6-3.2-1.3l-0.8,0.8c-0.4,0.4-1,0.4-1.4,0c-0.4-0.4-0.4-1,0-1.4l0.8-0.8c-0.7-0.9-1.1-2-1.3-3.2H4
		c-0.6,0-1-0.4-1-1s0.4-1,1-1h1.1c0.2-1.2,0.6-2.3,1.3-3.2L5.6,7.1c-0.4-0.4-0.4-1,0-1.4c0.2-0.2,0.5-0.3,0.8-0.3c0,0,0.1,0,0.2,0
		c0.6,0,1-0.4,1-1c0-0.5-0.3-0.8-0.8-1c0,0-0.3,0-0.3,0C5.7,3.3,4.9,3.6,4.2,4.2C3.2,5.3,3.1,6.9,3.9,8.1C3.8,8.4,3.6,8.7,3.5,9
		C2.1,9.3,1,10.5,1,12s1.1,2.7,2.5,3c0.1,0.3,0.3,0.7,0.4,1c-0.8,1.2-0.7,2.8,0.3,3.9c1.1,1.1,2.7,1.2,3.9,0.3
		c0.3,0.2,0.6,0.3,1,0.4c0.2,1.4,1.5,2.5,3,2.5c0.8,0,1.6-0.4,2.1-0.9C14.1,21.8,14,21.5,14,21.1z"/>
	<path d="M10,6c0.6,0,1-0.4,1-1V4c0-0.6,0.4-1,1-1s1,0.4,1,1v1.1c1.2,0.2,2.3,0.6,3.2,1.3l0.8-0.8c0.4-0.4,1-0.4,1.4,0
		c0.4,0.4,0.4,1,0,1.4l-0.8,0.8c0.7,0.9,1.2,2,1.3,3.2H20c0.6,0,1,0.4,1,1s-0.4,1-1,1h-1.1c0,0,0,0,0,0c0,0,0.1,0,0.1,0
		c0.8,0,1.6,0.3,2.1,0.9c0.4,0,0.7,0.1,1,0.2c0.5-0.5,0.9-1.3,0.9-2.1c0-1.5-1.1-2.7-2.5-2.9c-0.1-0.3-0.3-0.7-0.4-1
		c0.8-1.2,0.7-2.8-0.3-3.9c-1.1-1.1-2.7-1.2-3.9-0.3c-0.3-0.2-0.6-0.3-1-0.4C14.7,2.1,13.5,1,12,1S9.3,2.1,9,3.5C9,4,9,5,9,5
		C9,5.6,9.4,6,10,6z"/>
</g>
<path d="M22,20c0.6,0,1-0.5,1-1c0-0.6-0.4-1-1-1c-0.1,0-0.1,0-0.2,0c0-0.1-0.1-0.2-0.1-0.3c0,0,0.1-0.1,0.1-0.1c0.4-0.4,0.4-1,0-1.4
	c-0.4-0.4-1-0.4-1.4,0c0,0-0.1,0.1-0.1,0.1c-0.1-0.1-0.2-0.1-0.3-0.1c0-0.1,0-0.1,0-0.2c0-0.6-0.4-1-1-1s-1,0.4-1,1
	c0,0.1,0,0.1,0,0.2c-0.1,0-0.2,0.1-0.4,0.1c0,0-0.1-0.1-0.1-0.1c-0.4-0.4-1-0.4-1.4,0c-0.4,0.4-0.4,1,0,1.4c0,0,0.1,0.1,0.1,0.1
	c-0.1,0.1-0.1,0.2-0.1,0.4c-0.1,0-0.1,0-0.2,0c-0.6,0-1,0.4-1,1c0,0.6,0.4,1,1,1c0.1,0,0.1,0,0.2,0c0,0.1,0.1,0.2,0.1,0.4
	c0,0-0.1,0.1-0.1,0.1c-0.4,0.4-0.4,1,0,1.4c0.4,0.4,1,0.4,1.4,0c0,0,0.1-0.1,0.1-0.1c0.1,0.1,0.2,0.1,0.4,0.1c0,0.1,0,0.1,0,0.2
	c0,0.6,0.5,1,1,1s1-0.4,1-1c0-0.1,0-0.1,0-0.2c0.1,0,0.2-0.1,0.3-0.1c0,0,0.1,0.1,0.1,0.1c0.4,0.4,1,0.4,1.4,0c0.4-0.4,0.4-1,0-1.4
	c0,0-0.1-0.1-0.2-0.1c0-0.1,0.1-0.2,0.1-0.3C21.9,20,21.9,20,22,20z M19,21c-1.1,0-2-0.9-2-2c0-1.1,0.9-2,2-2s2,0.9,2,2
	C21,20.1,20.1,21,19,21z"/>
</svg>
