<svg fill="#ffffff" xmlns="http://www.w3.org/2000/svg" viewBox="0 0 24 24"><title>cost-centre-sets</title><circle cx="16" cy="10" r="1"/><path d="M13,9H10a1,1,0,0,0,0,2h3a1,1,0,0,0,0-2Z"/><circle cx="16" cy="13" r="1"/><path d="M13,12H10a1,1,0,0,0,0,2h3a1,1,0,0,0,0-2Z"/><path d="M13,15H10a1,1,0,0,0,0,2h3a1,1,0,0,0,0-2Z"/><path d="M22,20a1,1,0,0,0,0-2,1,1,0,0,0-.18,0,3,3,0,0,0-.14-.34.94.94,0,0,0,.15-.1,1,1,0,0,0-1.42-1.42.94.94,0,0,0-.1.15L20,16.17A1,1,0,0,0,20,16a1,1,0,0,0-2,0,1,1,0,0,0,0,.17l-.35.14a1,1,0,0,0-.1-.15,1,1,0,0,0-1.41,1.41,1,1,0,0,0,.15.1,2.94,2.94,0,0,0-.14.35A1,1,0,0,0,16,18a1,1,0,0,0,0,2,1,1,0,0,0,.17,0,3,3,0,0,0,.14.35,1,1,0,0,0-.15.1,1,1,0,0,0,1.41,1.41,1,1,0,0,0,.1-.15l.35.14A.93.93,0,0,0,18,22a1,1,0,0,0,2,0,.93.93,0,0,0,0-.18l.32-.13a.93.93,0,0,0,.1.15,1,1,0,0,0,1.44-1.44.93.93,0,0,0-.16-.1,3,3,0,0,0,.13-.32A.94.94,0,0,0,22,20Zm-3,1a2,2,0,1,1,2-2A2,2,0,0,1,19,21Z"/><polygon points="13 19 8 19 8 8 18 8 18 13 20 13 20 8 20 6 6 6 6 8 6 21 8 21 13 21 13 19"/><path d="M9,1A8,8,0,0,0,7,16.74V14.65A6,6,0,1,1,14.91,8h2A8,8,0,0,0,9,1Z"/></svg>