<svg  fill="#ffffff" xmlns="http://www.w3.org/2000/svg" viewBox="0 0 24 24"><title>drivers-sets</title><circle cx="5" cy="5" r="1"/><circle cx="17" cy="5" r="1"/><circle cx="5" cy="19" r="1"/><path d="M10.11,16.34a3,3,0,0,1-.69-1.66,4,4,0,1,1,5.32-2.3l1.7,1.13A6,6,0,1,0,10.54,17Z"/><path d="M9.94,12.69a3,3,0,0,1,.34-.41,3,3,0,0,1,2.12-.88,3,3,0,0,1,.54.05,2,2,0,1,0-3,1.24Z"/><path d="M14.93,17.31a2,2,0,0,1,.54-1.85l.13-.11-2.49-1.66a1,1,0,0,0-1.41,1.41L14,18.64A2,2,0,0,1,14.93,17.31Z"/><path d="M22,20a1,1,0,0,0,0-2,1,1,0,0,0-.18,0,3,3,0,0,0-.14-.34.94.94,0,0,0,.15-.1,1,1,0,0,0-1.42-1.42.94.94,0,0,0-.1.15L20,16.17A1,1,0,0,0,20,16a1,1,0,0,0-2,0,1,1,0,0,0,0,.17l-.35.14a1,1,0,0,0-.1-.15,1,1,0,0,0-1.41,1.41,1,1,0,0,0,.15.1,2.94,2.94,0,0,0-.14.35A1,1,0,0,0,16,18a1,1,0,0,0,0,2,1,1,0,0,0,.17,0,3,3,0,0,0,.14.35,1,1,0,0,0-.15.1,1,1,0,0,0,1.41,1.41,1,1,0,0,0,.1-.15l.35.14A.93.93,0,0,0,18,22a1,1,0,0,0,2,0,.93.93,0,0,0,0-.18l.32-.13a.93.93,0,0,0,.1.15,1,1,0,0,0,1.44-1.44.93.93,0,0,0-.16-.1,3,3,0,0,0,.13-.32A.94.94,0,0,0,22,20Zm-3,1a2,2,0,1,1,2-2A2,2,0,0,1,19,21Z"/><path d="M14,21H3V3H19V13h2V2a1,1,0,0,0-1-1H2A1,1,0,0,0,1,2V22a1,1,0,0,0,1,1H14Z"/></svg>