<svg fill="#ffffff" xmlns="http://www.w3.org/2000/svg" viewBox="0 0 24 24"><title>grid-view</title><path d="M6,1H2A1,1,0,0,0,1,2V6A1,1,0,0,0,2,7H6A1,1,0,0,0,7,6V2A1,1,0,0,0,6,1ZM3,3H5V5H3Z"/><path d="M14,1H10A1,1,0,0,0,9,2V6a1,1,0,0,0,1,1h4a1,1,0,0,0,1-1V2A1,1,0,0,0,14,1ZM11,3h2V5H11Z"/><path d="M22,1H18a1,1,0,0,0-1,1V6a1,1,0,0,0,1,1h4a1,1,0,0,0,1-1V2A1,1,0,0,0,22,1ZM19,3h2V5H19Z"/><path d="M6,9H2a1,1,0,0,0-1,1v4a1,1,0,0,0,1,1H6a1,1,0,0,0,1-1V10A1,1,0,0,0,6,9ZM3,11H5v2H3Z"/><path d="M14,9H10a1,1,0,0,0-1,1v4a1,1,0,0,0,1,1h4a1,1,0,0,0,1-1V10A1,1,0,0,0,14,9Zm-3,2h2v2H11Z"/><path d="M22,9H18a1,1,0,0,0-1,1v4a1,1,0,0,0,1,1h4a1,1,0,0,0,1-1V10A1,1,0,0,0,22,9Zm-3,2h2v2H19Z"/><path d="M6,17H2a1,1,0,0,0-1,1v4a1,1,0,0,0,1,1H6a1,1,0,0,0,1-1V18A1,1,0,0,0,6,17ZM3,19H5v2H3Z"/><path d="M14,17H10a1,1,0,0,0-1,1v4a1,1,0,0,0,1,1h4a1,1,0,0,0,1-1V18A1,1,0,0,0,14,17Zm-3,2h2v2H11Z"/><path d="M22,17H18a1,1,0,0,0-1,1v4a1,1,0,0,0,1,1h4a1,1,0,0,0,1-1V18A1,1,0,0,0,22,17Zm-3,2h2v2H19Z"/></svg>