<svg fill="#000000" xmlns="http://www.w3.org/2000/svg" viewBox="0 0 24 24"><title>tree-view</title><path d="M4,3,6,4H9a1,1,0,0,0,2,0V3a1,1,0,0,0-1-1H6L4,1H2A1,1,0,0,0,1,2V8A1,1,0,0,0,2,9h8a1,1,0,0,0,1-1V7A1,1,0,0,0,9,7H3V3Z"/><path d="M11,18H7V13h4a1,1,0,0,0,0-2H7a1,1,0,0,0-2,0v8a1,1,0,0,0,1,1h5a1,1,0,0,0,0-2Z"/><path d="M22,7H18L16,6H14a1,1,0,0,0-1,1v6a1,1,0,0,0,1,1h8a1,1,0,0,0,1-1V8A1,1,0,0,0,22,7Zm-1,5H15V8h1l2,1h3Z"/><path d="M22,16H18l-2-1H14a1,1,0,0,0-1,1v6a1,1,0,0,0,1,1h8a1,1,0,0,0,1-1V17A1,1,0,0,0,22,16Zm-1,5H15V17h1l2,1h3Z"/></svg>