<svg fill="#ffffff" xmlns="http://www.w3.org/2000/svg" viewBox="0 0 24 24"><title>accounts</title><path d="M1,1V4A1,1,0,0,0,3,4V3H21V5a1,1,0,0,0,2,0V1Z"/><path d="M22,18a1,1,0,0,0-1,1v2H3V9A1,1,0,0,0,1,9V23H23V19A1,1,0,0,0,22,18Z"/><circle cx="18" cy="6" r="1"/><circle cx="18" cy="10" r="1"/><circle cx="18" cy="14" r="1"/><circle cx="18" cy="18" r="1"/><path d="M14,17H6a1,1,0,0,0,0,2h8a1,1,0,0,0,0-2Z"/><path d="M14,13H6a1,1,0,0,0,0,2h8a1,1,0,0,0,0-2Z"/><path d="M14,9H6a1,1,0,0,0,0,2h8a1,1,0,0,0,0-2Z"/><path d="M14,5H6A1,1,0,0,0,6,7h8a1,1,0,0,0,0-2Z"/></svg>