<svg fill="#ffffff" xmlns="http://www.w3.org/2000/svg" viewBox="0 0 24 24"><title>configuration-groups</title><path d="M22,20a1,1,0,0,0,0-2,1,1,0,0,0-.18,0,3,3,0,0,0-.14-.34.94.94,0,0,0,.15-.1,1,1,0,0,0-1.42-1.42.94.94,0,0,0-.1.15L20,16.17A1,1,0,0,0,20,16a1,1,0,0,0-2,0,1,1,0,0,0,0,.17l-.35.14a1,1,0,0,0-.1-.15,1,1,0,0,0-1.41,1.41,1,1,0,0,0,.15.1,2.94,2.94,0,0,0-.14.35A1,1,0,0,0,16,18a1,1,0,0,0,0,2,1,1,0,0,0,.17,0,3,3,0,0,0,.14.35,1,1,0,0,0-.15.1,1,1,0,0,0,1.41,1.41,1,1,0,0,0,.1-.15l.35.14A.93.93,0,0,0,18,22a1,1,0,0,0,2,0,.93.93,0,0,0,0-.18l.32-.13a.93.93,0,0,0,.1.15,1,1,0,0,0,1.44-1.44.93.93,0,0,0-.16-.1,3,3,0,0,0,.13-.32A.94.94,0,0,0,22,20Zm-3,1a2,2,0,1,1,2-2A2,2,0,0,1,19,21Z"/><path d="M9.88,9.88l1.41,1.41a1,1,0,1,1,0,1.41L9.88,14.12a3,3,0,1,0,0-4.24Z"/><path d="M14,19.74V17.65a6.14,6.14,0,0,1-.94.25H13a5.57,5.57,0,0,1-2,0h-.08a6.14,6.14,0,0,1-.94-.25,5.94,5.94,0,0,1-.58-.24,6,6,0,0,1-2.83-2.83A5.94,5.94,0,0,1,6.35,14a6.14,6.14,0,0,1-.25-.94V13a5.59,5.59,0,0,1,0-2V11A6.12,6.12,0,0,1,6.34,10a5.91,5.91,0,0,1,.74-1.44l.06-.08A6.08,6.08,0,0,1,8,7.55V5.17l-.95-.95a1,1,0,0,0-1.41,0L4.22,5.64a1,1,0,0,0,0,1.41l.9.9A7.93,7.93,0,0,0,4.26,10H3a1,1,0,0,0-1,1v2a1,1,0,0,0,1,1H4.26a7.94,7.94,0,0,0,.85,2.06l-.89.89h0a1,1,0,0,0,0,1.41l1.41,1.41a1,1,0,0,0,1.41,0l.89-.89a7.94,7.94,0,0,0,2.06.85V21a1,1,0,0,0,1,1h2a1,1,0,0,0,1-1Z"/><path d="M21,10H19.74a7.94,7.94,0,0,0-.85-2.06l.89-.89a1,1,0,0,0,0-1.41L18.36,4.22a1,1,0,0,0-1.41,0l-.89.89A7.94,7.94,0,0,0,14,4.26V3a1,1,0,0,0-1-1H11a1,1,0,0,0-1,1V6.35A6,6,0,0,1,12,6a5.84,5.84,0,0,1,1,.09h.08a6.14,6.14,0,0,1,.94.25,5.94,5.94,0,0,1,.58.24,6,6,0,0,1,2.83,2.83,5.94,5.94,0,0,1,.24.58,6.14,6.14,0,0,1,.25.94V11a5.57,5.57,0,0,1,0,2v.08a6.14,6.14,0,0,1-.25.94H21a1,1,0,0,0,1-1V11A1,1,0,0,0,21,10Z"/></svg>