<svg fill="#ffffff" xmlns="http://www.w3.org/2000/svg" viewBox="0 0 24 24"><title>measured-objects</title><path d="M16.24,1.39,1.39,16.24a1,1,0,0,0,0,1.41l4.95,4.95a1,1,0,0,0,1.41,0l9.19-9.19A1,1,0,1,0,15.54,12L7,20.48,3.51,16.95l1.41-1.41,1.41,1.41a1,1,0,0,0,1.41-1.41L6.34,14.12l1.41-1.41,1.41,1.41a1,1,0,0,0,1.41-1.41L9.17,11.29l1.41-1.41L12.71,12a1,1,0,0,0,1.41-1.41L12,8.46,13.41,7l1.41,1.41A1,1,0,0,0,16.24,7L14.83,5.64l2.12-2.12L20.48,7,18.36,9.17a1,1,0,0,0,1.41,1.41l2.83-2.83a1,1,0,0,0,0-1.41L17.66,1.39A1,1,0,0,0,16.24,1.39Z"/></svg>