<svg id="Layer_3" data-name="Layer 3" xmlns="http://www.w3.org/2000/svg" viewBox="0 0 24 24"><title>drivers</title><path d="M21,1H3A1,1,0,0,0,2,2V22a1,1,0,0,0,1,1H21a1,1,0,0,0,1-1V2A1,1,0,0,0,21,1ZM4,3H20V21H4Z"/><circle cx="6" cy="5" r="1"/><circle cx="18" cy="5" r="1"/><circle cx="6" cy="19" r="1"/><path d="M11.11,16.34a3,3,0,0,1-.69-1.66,4,4,0,1,1,5.32-2.3l1.7,1.13A6,6,0,1,0,11.54,17Z"/><path d="M14.11,13.69a1,1,0,0,0-1.41,1.41l2.83,4.24a2,2,0,1,0,2.83-2.83Z"/><path d="M10.94,12.69a3,3,0,0,1,.34-.41,3,3,0,0,1,2.12-.88,3,3,0,0,1,.54.05,2,2,0,1,0-3,1.24Z"/></svg>