<svg fill="#ffffff" xmlns="http://www.w3.org/2000/svg" viewBox="0 0 24 24"><title>model</title><path d="M16.5,16A3.5,3.5,0,1,0,20,19.5,3.5,3.5,0,0,0,16.5,16Zm0,5A1.5,1.5,0,1,1,18,19.5,1.5,1.5,0,0,1,16.5,21Z"/><path d="M16.5,1a3.5,3.5,0,0,0-3.22,4.87L10.72,8.32a1,1,0,1,0,1.38,1.44l2.45-2.35A3.5,3.5,0,1,0,16.5,1Zm0,5A1.5,1.5,0,1,1,18,4.5,1.5,1.5,0,0,1,16.5,6Z"/><path d="M12.29,16.23l-1.95-1.7a3.57,3.57,0,1,0-1.62,1.24l2.26,2a1,1,0,1,0,1.32-1.51ZM6,12.5A1.5,1.5,0,1,1,7.5,14,1.5,1.5,0,0,1,6,12.5Z"/></svg>